<svg id="Layer_1" xmlns="http://www.w3.org/2000/svg" viewBox="0 0 168.0309 130"><style>.st0{fill:#04c}</style><path class="st0" d="M11.672 66.94c-1.575 1.616-1.99 3.93-1.11 6.187 2.781 7.146 14.746 20.66 40.124 20.658 1.762 0 3.525-.12 5.39-.247.742-.051 1.495-.102 2.26-.146 2.038-.118 4.556-.501 5.949-2.439.611-.85 1.215-2.326.614-4.526a2.506 2.506 0 0 0-3.07-1.753 2.5 2.5 0 0 0-1.754 3.07c.037.133.056.234.065.308-.235.104-.801.273-2.091.348-.783.045-1.554.098-2.313.15-1.778.12-3.458.235-5.05.235h-.003c-23.512 0-33.57-12.612-35.461-17.472-.213-.545-.083-.766.033-.885.06-.063.203-.21.644-.21l4.873.129-2.74-4.033c-3.305-4.864-4.736-9.974-3.954-11.52.227-.45.628-.625 1.196-.493.533.12 1.218.397 2.095.847l6.218 3.187-2.784-6.408c-3.28-7.55-3.663-12.875-2.676-13.819a.805.805 0 0 1 .567-.242c.243 0 .935.112 2.084 1.151 1.099.994 2.398 2.379 3.969 4.235l6.588 7.778-2.241-9.944c-2.362-10.48-1.218-15.136-.297-15.747a.86.86 0 0 1 .472-.141c.44 0 .88.334 1.172.614.703.674 1.514 1.715 2.413 3.094l4.976 7.633-.384-9.104c-.415-9.82 1.519-14.865 3.01-15.307.072-.021.187-.047.315-.047.819 0 1.457 1.24 1.764 1.981.413.994 1.053 3.256 1.729 5.684l3.734 13.436 1.165-13.896c.799-9.528 3.002-13.04 4.762-13.147l.1-.002c1.324 0 2.41 1.652 2.699 4.085C60.04 40.746 74.06 63.336 79.936 71.63c.137.192.23.325.276.393.698 1.048 2.867 4.606 1.464 6.359a.063.063 0 0 1-.055.025 2.5 2.5 0 1 0 0 5c1.548 0 2.99-.692 3.957-1.9 2.45-3.059 2.022-7.41-1.209-12.262-.063-.094-.18-.262-.352-.505-5.649-7.977-19.132-29.7-22.326-59.084-.605-5.096-3.686-8.52-7.666-8.52-.11 0-.22.003-.369.01-4.372.266-6.685 4.23-7.944 8.476-1.7-2.156-3.718-2.542-4.94-2.542-.576 0-1.15.083-1.724.249-4.61 1.367-6.15 7.782-6.544 13.794-1.234-.741-2.39-.926-3.235-.926a5.84 5.84 0 0 0-3.235.974c-3.212 2.133-3.713 7.472-3.144 13.146-1.392-.965-2.798-1.452-4.196-1.452-1.498 0-2.927.58-4.023 1.63-3.228 3.084-1.922 9.719-.235 14.785a5.935 5.935 0 0 0-4.82 3.256c-1.829 3.613.02 9.26 2.619 13.897a5.59 5.59 0 0 0-.563.506zM125.065 85.893c4.059 0 5.31-1.851 5.694-2.955.385-1.103.555-3.331-2.624-5.853l-9.963-7.9c-3.458-2.743-9.624-4.891-14.038-4.891h-2.352c-5.238 0-9.5 4.261-9.5 9.5v2.6c0 5.238 4.262 9.5 9.5 9.5h23.283zm-27.783-9.5v-2.6c0-2.48 2.019-4.5 4.5-4.5h2.352c3.264 0 8.373 1.78 10.93 3.81l9.826 7.79h-23.108a4.505 4.505 0 0 1-4.5-4.5z"/><path class="st0" d="M159.62 85.567l-40.45-26.935c-3.618-2.41-9.861-4.298-14.211-4.298H83.137a2.5 2.5 0 1 0 0 5h21.822c3.385 0 8.624 1.584 11.44 3.46l40.45 26.935c2.51 1.671 4.712 5.782 4.712 8.798v6.876c0 2.481-2.018 4.5-4.5 4.5h-6.625c-1.211-7.891-8.026-13.96-16.25-13.96s-15.04 6.069-16.25 13.96H50.9c-1.211-7.891-8.026-13.96-16.25-13.96s-15.04 6.069-16.25 13.96h-7.43a4.505 4.505 0 0 1-4.5-4.5v-43.57a2.5 2.5 0 1 0-5 0v43.57c0 5.238 4.261 9.5 9.5 9.5h7.43c1.21 7.89 8.026 13.96 16.25 13.96s15.039-6.07 16.25-13.96h67.036c1.21 7.89 8.026 13.96 16.25 13.96s15.04-6.07 16.25-13.96h6.625c5.239 0 9.5-4.262 9.5-9.5v-6.876c0-4.676-3.049-10.369-6.941-12.96zM34.65 123.863c-6.32 0-11.46-5.141-11.46-11.46s5.14-11.46 11.46-11.46 11.46 5.14 11.46 11.46-5.14 11.46-11.46 11.46zm99.536 0c-6.319 0-11.46-5.141-11.46-11.46s5.141-11.46 11.46-11.46 11.46 5.14 11.46 11.46-5.14 11.46-11.46 11.46z"/></svg>