<svg id="Layer_1" xmlns="http://www.w3.org/2000/svg" viewBox="0 0 117.6146 141"><style>.st0{fill:#04c}</style><path class="st0" d="M115.429 95.777c1.943-4.384 1.473-8.746-1.327-12.276-1.687-2.104-3.706-3.414-5.46-4.42-1.7-.977-3.601-1.453-5.807-1.453h-.055c-6.885.02-13.88.02-20.645.02h-1.117c1.167-4.175 1.843-8.3 2.05-12.482.234-4.583-.288-8.588-1.597-12.236-1.42-3.947-3.732-7.16-6.874-9.557-1.802-1.361-3.718-2.045-5.712-2.045-2.088 0-4.096.747-5.97 2.219-1.622 1.278-2.436 3.133-2.3 5.227l.063.848c.144 1.707.242 3.094.267 4.46.067 3.605-.331 6.233-1.291 8.522-2.228 5.344-4.649 9.731-7.405 13.422-2.82 3.796-5.854 6.852-9.23 9.31-.47-3.445-3.062-5.688-6.755-5.688H7.904c-4.12 0-6.89 2.757-6.89 6.86-.01 15.5-.01 31.001 0 46.493 0 3.864 2.803 6.72 6.664 6.786.252.004.493.006.734.006l.67-.003.623-.002h26.61c3.527 0 6.18-2.301 6.693-5.616 1.85 1.34 4.333 2.377 7.657 2.55.256.014.535.02.814.02.61 0 1.176-.032 1.677-.061l.184-.01.303-.02c.37-.022.72-.043 1.002-.043h2.07c5.463-.004 11.004-.009 16.575-.009 7.975 0 14.542.01 20.669.03 2.292 0 4.475-.465 6.721-1.42 4.444-1.916 6.04-5.14 6.6-7.51.326-1.344.456-2.666.39-3.95 1.594-1.17 3.078-3.025 3.865-5.97.6-2.272.773-4.608.525-7.242 1.925-1.654 3.101-3.857 3.45-6.478.31-2.35.086-4.722-.663-7.076.206-.39.4-.794.582-1.206zm-77.325 7.321v29.89c0 1.18-.62 1.8-1.79 1.8H9.705c-.433 0-.862.005-1.292.005-.215 0-.43-.001-.648-.005-1.15-.02-1.75-.64-1.75-1.79-.01-15.49-.01-30.99 0-46.49 0-1.36.51-1.86 1.89-1.86h28.36c1.31 0 1.84.53 1.84 1.84v16.61zm72.75-9.34c-.3.68-.66 1.36-1.08 2-.34.52-.37.98-.12 1.58.86 2.05 1.16 4.08.9 6.06-.24 1.8-1.13 3.12-2.74 4.04-.16.09-.31.17-.43.24-.7.38-.77.45-.62 1.14.03.16.08.37.12.64.43 2.72.37 4.95-.18 7.03-.58 2.17-1.71 3.44-3.56 3.99-.56.16-.84.27-.97.51-.14.26-.02.6.16 1.17.44 1.34.47 2.78.08 4.39-.44 1.86-1.65 3.18-3.69 4.06-1.6.68-3.14 1.02-4.72 1.02h-.03c-6.865-.022-13.797-.029-20.684-.029-5.572 0-11.115.005-16.575.01h-2.07c-.53 0-1.07.04-1.59.07-.519.029-1.048.064-1.576.064-.185 0-.37-.004-.554-.015-3.27-.17-5.62-1.47-7.16-3.98-.16-.25-.25-.57-.25-.83-.01-5.89-.01-11.78-.02-17.67 0-5.89 0-11.78-.01-17.67 0-.39.12-.59.49-.83 4.59-2.96 8.61-6.79 12.28-11.73 3.01-4.03 5.63-8.77 8.01-14.48 1.25-2.98 1.76-6.24 1.68-10.55-.03-1.59-.15-3.19-.28-4.74l-.06-.8c-.03-.46.07-.71.4-.97.98-.77 1.93-1.15 2.88-1.15.89 0 1.78.34 2.68 1.02 2.36 1.8 4.11 4.24 5.2 7.27 1.08 3.01 1.51 6.38 1.31 10.3-.28 5.64-1.5 11.18-3.73 16.95-.04.11-.07.21-.11.34l-.13.44h8.03c6.77 0 13.77 0 20.66-.02h.04c1.32 0 2.38.25 3.32.79 1.43.82 2.9 1.78 4.03 3.19 1.65 2.08 1.88 4.42.67 7.15zM55.187 23.338l.018-.018c2.707 2.338 8.54.267 13.754-4.947 5.214-5.215 7.285-11.048 4.948-13.755l.017-.017-2.263-2.264C69.046-.277 63.047 1.78 57.706 7.12c-5.341 5.341-7.397 11.34-4.782 13.954l2.263 2.264zm4.4-14.337c4.57-4.57 9.09-5.885 10.192-4.782 1.103 1.102-.212 5.621-4.782 10.191s-9.09 5.885-10.192 4.783c-1.103-1.102.212-5.621 4.782-10.192z"/></svg>