<svg xmlns="http://www.w3.org/2000/svg" width="91.505" height="202.764" viewBox="0 0 91.504845 202.763504"><g fill="#fff"><path d="M36.012 16.865l1.95-.685-.81-3.674-1.95.686zm-1.189-5.397l1.949-.686-.726-3.293c-.142-.658-.695-1.05-1.237-.878-.542.173-.867.845-.726 1.503l.74 3.354zm2.087 9.469c.142.658.695 1.05 1.237.878.543-.173.868-.845.727-1.503l-.531-2.408-1.95.685.518 2.348zm20.41-8.477l-2.05-.32-.478 3.782 2.052.32zm.583-4.623c.088-.673-.297-1.302-.862-1.407-.564-.106-1.093.353-1.181 1.025l-.368 2.918 2.051.32.36-2.856zm-2.838 14.159c.565.105 1.094-.353 1.182-1.025l.374-2.963-2.051-.32-.366 2.901c-.088.672.297 1.301.86 1.407zm18.732-6.372c.303-.895.13-2.05-.385-2.577-.516-.525-1.178-.226-1.483.67l-.179.53 1.878 1.881.17-.504zm-.689 2.046l-1.878-1.88-.53 1.573 1.878 1.881zm-3.798 7.541c.228.232.485.304.727.233.306-.09.587-.403.756-.903l.29-.86-1.878-1.88-.28.832c-.303.896-.13 2.05.385 2.578zm2.748-4.424l-1.877-1.882-.456 1.353 1.877 1.881zm-54.011 1.816l1.948-2.086-.95-2.015-1.966 2.05zm.287-5.607l-.684-1.45-2.052 1.868.77 1.631zm.726 7.757c.234.487.58.779.935.846.282.054.569-.037.81-.286.545-.56.648-1.723.228-2.594l-.328-.696-1.947 2.087.303.643zm-2.374-11.248c-.415-.871-1.197-1.123-1.744-.56-.545.56-.647 1.722-.228 2.594l.173.366 2.051-1.867-.252-.533zM8.177 31.688l-2.545-.862-2.361 2.496 2.543.862zm1.728.586l-.117-.04-2.354 2.488c.451.14.921.232 1.383.262 1.04.07 2.01-.132 2.494-.58.724-.665.094-1.618-1.406-2.13zM.3 30.66c-.716.659-.104 1.598 1.362 2.114l2.346-2.481c-1.43-.396-3.035-.254-3.709.367zm85.945 3.263l2.071-.678-1.86-2.19-2.071.679zm5.113-3.069c-.47-.609-1.911-.753-3.24-.339l1.85 2.178c1.218-.456 1.841-1.253 1.39-1.839zm-6.771 3.612l-1.861-2.19-.07.024c-1.352.44-2.062 1.297-1.587 1.914.32.414 1.091.614 1.972.569a5.22 5.22 0 0 0 1.335-.248l.211-.07zM7.348 22.54a.891.891 0 1 0 1.077-1.423L4.263 17.97a.892.892 0 1 0-1.077 1.423l4.162 3.147zM25.403 9.86a.894.894 0 0 0 1.667-.642l-1.878-4.866a.897.897 0 0 0-1.154-.513.895.895 0 0 0-.513 1.154l1.878 4.867zm20.279-2.868c.022 0 .043 0 .066-.002a.895.895 0 0 0 .826-.955L46.2.83c-.037-.492-.485-.872-.956-.826a.895.895 0 0 0-.826.955l.374 5.205c.035.47.426.828.89.828zm19.942 3.319a.893.893 0 0 0 1.177-.459l2.101-4.775a.893.893 0 0 0-.459-1.177.9.9 0 0 0-1.177.458l-2.1 4.776a.893.893 0 0 0 .458 1.177zM81.75 22.736c.153-.02.3-.079.429-.179l4.13-3.19a.894.894 0 0 0-1.092-1.413l-4.13 3.19a.894.894 0 0 0 .664 1.592zm6.656 19.489l-3.886-.055c-.423-.015-.67.209-.678.478-.007.27.284.492.652.498l3.887.055h.013c.36 0 .657-.212.665-.478.006-.27-.285-.492-.653-.498zm-78.452-.004l-4.12-.048c-.42.019-.71.21-.717.48-.006.27.305.491.693.496l4.12.049h.012c.384 0 .698-.214.705-.48.007-.27-.305-.492-.693-.497zM54.333 158.67c1.761-1.45 3.28-2.594 4.62-3.603 7.209-5.43 9.49-8.163 8.904-19.793a6.09 6.09 0 0 0-2.858-4.86c1.678-3.928 2.428-8.183 2.239-12.732-.074-1.77.062-3.63.235-5.983l.02-.272a6.117 6.117 0 0 0-1.608-4.6 6.11 6.11 0 0 0-1.019-.878c1.786-4.194 2.54-8.878 2.273-14.017V58.557c-.37.125-.75.248-1.14.367-.906.277-1.87.526-2.86.761V77.96a6.152 6.152 0 0 0-2.606-.456c-.179-2.968-1.095-5.967-2.75-8.985-.538-.982-1.057-1.904-1.558-2.797-.895-1.591-1.704-3.045-2.463-4.536-1.76.163-3.566.273-5.404.326 1.5 3.24 3.149 5.96 5.04 9.41 3.54 6.455 2.555 12.087-1.703 17.582-1.381 1.782-3.263 3.333-4.11 5.332-1.025 2.416-1.44 5.09-2.02 7.695a1.106 1.106 0 0 0 .748 1.29l.338.108c.828-8.986 8.687-13.062 13.266-19.942a1.06 1.06 0 0 1 .897-.49c.573 0 1.14.442 1.125 1.139-.053 2.583-.09 4.883.118 7.161.826 9.055-1.789 16.583-8.892 22.488-1.83 1.521-3.452 3.38-4.85 5.315-.903 1.248-1.563 2.534-1.982 3.878-.262.841.417 1.463 1.093 1.463.364 0 .727-.18.943-.6 2.71-5.28 8.173-8.45 12.2-13.089.23-.266.529-.383.822-.383.594 0 1.167.483 1.115 1.193-.187 2.551-.353 4.695-.264 6.83.293 7.042-2.06 12.985-6.839 18.046-2.066 2.188-4.26 4.258-6.27 6.496-.79.88-1.482 1.794-2.029 2.76-.48.847.258 1.662 1.013 1.662.304 0 .612-.133.843-.45 3.274-4.505 8.525-7.28 11.94-11.511.228-.283.54-.41.849-.41.546 0 1.081.4 1.114 1.042.619 12.276-1.94 11.237-11.708 19.285-1.313 1.081-2.955 3.142-3.322 4.49-.775 2.84-1.228 6.82-1.497 10.534h-2.26c-.005-4.157-.014-8.47-.032-10.53-.02-2.207-4.766-6.243-7.274-9.016-3.43-3.792-7.147-7.346-7.38-13.006-.17-4.104-.494-8.202-.827-12.715-.052-.712.518-1.19 1.112-1.19.296 0 .597.119.83.386 5.39 6.143 13.715 9.597 14.42 19.177.098-3.102.07-6.348-1.372-8.743-2.296-3.814-5.344-7.242-8.425-10.5-3.556-3.76-6.032-7.924-6.213-13.133-.132-3.793-.087-7.593-.056-11.358.006-.673.553-1.102 1.116-1.102.303 0 .61.124.84.402 4.86 5.893 13.837 9.146 13.91 19.216 1.925-6.59-5.412-14.845-6.477-15.981-5.828-6.221-9.823-12.771-8.689-21.762.329-2.598.278-5.243.195-8.118-.02-.704.545-1.144 1.12-1.144.345 0 .693.159.92.514 2.943 4.593 7.557 7.938 10.441 12.422.235.366.571.52.903.52.717 0 1.416-.719 1.04-1.579-.796-1.814-2.002-3.483-3.509-5.037-3.209-3.31-3.37-6.453-1.083-10.526 1.181-2.103 2.17-3.581 3.054-5.539a84.96 84.96 0 0 1-5.422-.359c-.272.488-.56.983-.88 1.528-.352.6-.722 1.228-1.112 1.922-.4.713-.746 1.42-1.036 2.117a6.06 6.06 0 0 0-3.317-.983c-.867 0-1.719.192-2.5.54v-6.571a47.803 47.803 0 0 1-2.868-.763 38.34 38.34 0 0 1-1.133-.365v23.765c0 .073.013.142.018.213a26.677 26.677 0 0 0 2.381 11.48 6.122 6.122 0 0 0-2.912 5.147l-.007.849c-.03 3.495-.06 7.11.066 10.726.106 3.048.829 5.962 2.187 8.786-.331.236-.64.506-.92.808a6.117 6.117 0 0 0-1.61 4.597l.124 1.662c.283 3.796.55 7.382.695 10.896.288 7.003 4.457 11.555 7.807 15.212.287.314.575.628.86.944.713.787 1.522 1.6 2.378 2.462 1.06 1.067 2.94 2.958 3.61 3.949.016 2.388.023 6.55.026 9.78H32.98c-3.9 0-7.06 3.203-7.06 7.156v.538a7.158 7.158 0 0 0 3.953 6.419c-1.579 3.603-.396 8.209 1.357 11.482l.229.428c2.28 4.26 5.881 6.906 9.398 6.906h9.793c3.516 0 7.118-2.647 9.398-6.906l.23-.428c1.752-3.273 2.935-7.878 1.356-11.482a7.158 7.158 0 0 0 3.953-6.419v-.538c0-3.953-3.16-7.156-7.06-7.156h-7.174c.37-4.902.888-7.65 1.274-9.103.222-.454 1.033-1.506 1.707-2.062zm1.535 34.4l-.229.428c-1.407 2.627-3.495 4.266-4.99 4.266h-9.793c-1.495 0-3.584-1.639-4.99-4.266l-.23-.428c-2.068-3.863-2.162-8.385.71-8.385h18.813c2.872 0 2.778 4.522.71 8.385zm4.718-16.08v.54c0 1.188-.924 2.155-2.06 2.155H32.98c-1.136 0-2.06-.967-2.06-2.156v-.538c0-1.19.924-2.156 2.06-2.156h25.547c1.136 0 2.06.967 2.06 2.156zM64.54 33.228c-3.228-.985-7.096-1.688-11.285-2.071v5.02c9.862.968 17.001 3.79 17.001 7.124 0 4.132-10.97 7.482-24.504 7.482s-24.504-3.35-24.504-7.482c0-3.334 7.142-6.157 17.007-7.124v-5.02c-4.19.383-8.06 1.085-11.29 2.071-8.857 2.705-10.717 6.97-10.717 10.073s1.86 7.368 10.717 10.072c5.089 1.554 11.76 2.41 18.787 2.41 7.027 0 13.699-.856 18.788-2.41 8.857-2.704 10.716-6.97 10.716-10.072s-1.859-7.368-10.716-10.073z"/><path d="M48.255 28.055a2.5 2.5 0 1 0-5 0v15.527h5V28.055z"/></g></svg>